<svg id="Слой_1" data-name="Слой 1" xmlns="http://www.w3.org/2000/svg" viewBox="0 0 1920 1080"><defs><style>.cls-1{fill:none;}</style></defs><path class="cls-1" d="M0,0V1080H1920V0ZM1905,692.82V900.09a25,25,0,0,1-25,25H1583.22V970.2a25.13,25.13,0,0,1-25.13,25.13H40.35A25.13,25.13,0,0,1,15.22,970.2V40.46A25.13,25.13,0,0,1,40.35,15.33H1558.09a25.13,25.13,0,0,1,25.13,25.13V692.82h.23V512h296A25.57,25.57,0,0,1,1905,537.53Z"/><path class="cls-1" d="M1517.08,692.82a25,25,0,0,0-25,25V900.09a25,25,0,0,0,25,25h66.14V692.82Z"/></svg>