<svg id="Слой_1" data-name="Слой 1" xmlns="http://www.w3.org/2000/svg" xmlns:xlink="http://www.w3.org/1999/xlink" viewBox="0 0 1920 1080"><defs><style>.cls-1{fill:#151515;}.cls-2,.cls-3,.cls-4{fill:none;stroke:#e30613;stroke-miterlimit:10;}.cls-2{stroke-width:5.01px;}.cls-3{stroke-width:5px;}.cls-4{stroke-width:4.99px;}</style></defs><rect class="cls-1" width="1920" height="1080"/><image width="1680" height="1050" transform="translate(14.99 15.04) scale(0.93)" xlink:href="D:%5CGames%5Cosu!%5CScreenshots%5Cscreenshot1449.png"/><rect id="gameFrame" class="cls-2" x="15.22" y="15.33" width="1568" height="980" rx="25.13"/><path id="webCam" class="cls-3" d="M1517.08,692.82H1905a0,0,0,0,1,0,0V900.09a25,25,0,0,1-25,25H1517.08a25,25,0,0,1-25-25V717.82A25,25,0,0,1,1517.08,692.82Z"/><path id="faceCam" class="cls-4" d="M1583.72,512.26h295.47a25.53,25.53,0,0,1,25.53,25.53v155a0,0,0,0,1,0,0h-321a0,0,0,0,1,0,0V512.26A0,0,0,0,1,1583.72,512.26Z"/></svg>