<svg width="1890" height="981" viewBox="0 0 1890 981" fill="none" xmlns="http://www.w3.org/2000/svg">
<path fill-rule="evenodd" clip-rule="evenodd" d="M25.35 0.330017H1543.09C1556.97 0.330017 1568.22 11.5811 1568.22 25.46V677.82H1502.08C1495.45 677.82 1489.09 680.454 1484.4 685.142C1479.71 689.831 1477.08 696.19 1477.08 702.82V885.09C1477.08 891.721 1479.71 898.079 1484.4 902.768C1489.09 907.456 1495.45 910.09 1502.08 910.09H1568.22V955.2C1568.22 969.079 1556.97 980.33 1543.09 980.33H25.35C11.4711 980.33 0.219971 969.079 0.219971 955.2V25.46C0.219971 11.5811 11.4711 0.330017 25.35 0.330017ZM1568.22 910.09H1865C1871.63 910.09 1877.99 907.456 1882.68 902.768C1887.37 898.079 1890 891.721 1890 885.09V677.82H1568.22V910.09Z" fill="#EEEEEE"/>
</svg>
